# xmcd
#
# Track frame offsets:
#	150
#	16158
#	38148
#	58938
#	97492
#	118020
#	138809
#	157422
#	170665
#	193667
#	215672
#
# Disc length: 3554 seconds
#
# Revision: 1
# Processed by: cddbd v1.4PL0 Copyright (c) Steve Scherf et al.
# Submitted via: audiograbber 1.81.02
#
DISCID=a80de00b
DTITLE=Joe Colombo - Bottleneck and Snakehead
DYEAR=1900
DGENRE=Blues
TTITLE0=Tequila Shot
TTITLE1=Bottleneck and Snakehead
TTITLE2=Push It Down
TTITLE3=Rough Enough
TTITLE4=Fighting' With The Devil
TTITLE5=Funky Wha!
TTITLE6=Talkin' About Texas
TTITLE7=Standin' At The Station
TTITLE8=Sweet Things
TTITLE9=Goin' Down
TTITLE10=Playin' The Blues
EXTD=
EXTT0=
EXTT1=
EXTT2=
EXTT3=
EXTT4=
EXTT5=
EXTT6=
EXTT7=
EXTT8=
EXTT9=
EXTT10=
PLAYORDER=
